PathFileType	4	(X/Y/Z)	C:/Users/cpontonn/Documents/TRAVAIL - COURS/FORMATION DOCTORALE/COURS 2E/2023/TP OPENSIM/DATA/marche.trc	
DataRate	CameraRate	NumFrames	NumMarkers	Units	OrigDataRate	OrigDataStartFrame	OrigNumFrames	
100.00	100.00	4	38	mm	100.00	115	414	
Frame#	Time	LFHD			LBHD			RFHD			RBHD			C7			T10			CLAV			STRN			LSHO			LRAD			LHUM			LWRB			LWRA			LCAR			RSHO			RRAD			RHUM			RWRB			RWRA			RCAR			LFWT			LBWT			RFWT			RBWT			LKNE			LKNI			LANE			LHEE			LANI			LTAR			LTOE			RKNE			RKNI			RANE			RHEE			RANI			RTAR			RTOE			
		X1	Y1	Z1	X2	Y2	Z2	X3	Y3	Z3	X4	Y4	Z4	X5	Y5	Z5	X6	Y6	Z6	X7	Y7	Z7	X8	Y8	Z8	X9	Y9	Z9	X10	Y10	Z10	X11	Y11	Z11	X12	Y12	Z12	X13	Y13	Z13	X14	Y14	Z14	X15	Y15	Z15	X16	Y16	Z16	X17	Y17	Z17	X18	Y18	Z18	X19	Y19	Z19	X20	Y20	Z20	X21	Y21	Z21	X22	Y22	Z22	X23	Y23	Z23	X24	Y24	Z24	X25	Y25	Z25	X26	Y26	Z26	X27	Y27	Z27	X28	Y28	Z28	X29	Y29	Z29	X30	Y30	Z30	X31	Y31	Z31	X32	Y32	Z32	X33	Y33	Z33	X34	Y34	Z34	X35	Y35	Z35	X36	Y36	Z36	X37	Y37	Z37	X38	Y38	Z38	

1	0.000	2557.19604	234.82065	1747.67627	2704.06665	223.87045	1725.00476	2557.78564	369.23688	1733.90564	2716.64844	351.86658	1703.74524	2772.84399	296.47818	1602.44873	2892.81299	283.72015	1396.21130	2664.45288	283.72113	1503.99817	2662.45337	268.45181	1323.05151	2731.84692	88.47997	1574.70435	2852.99341	13.55218	1228.42053	2869.98755	75.63549	1236.78125	2837.71289	-32.30896	976.63904	2795.30249	31.38045	962.47797	2796.92261	-33.33556	890.76147	2723.26563	479.58118	1535.74463	2801.01709	529.28943	1163.97705	2833.83447	478.23538	1174.32434	2740.14136	540.55902	911.41064	2708.87988	475.65125	909.49762	2704.63965	532.29950	833.16125	2670.90601	155.79460	1061.43750	2861.07104	226.42564	1100.83984	2661.83521	344.74225	1043.55945	2856.12744	306.78183	1095.97107	2631.95410	67.33675	571.41254	2611.33130	178.00586	536.30469	2726.57104	118.54421	126.42316	2807.95752	184.24135	54.97068	2709.00000	205.27547	135.55577	2579.40747	82.01812	48.78281	2517.47485	157.52789	53.58376	2830.29590	391.84155	533.39417	2842.61035	295.82095	495.59354	2955.89453	358.48248	89.45310				2942.88525	267.36237	114.51240	2805.87573	386.20270	40.33708	2744.66382	302.75162	48.39779 
2	0.010	2550.03735	235.33342	1746.00146	2697.03882	224.37732	1724.10388	2550.69092	369.67801	1731.97522	2709.75342	352.30234	1702.66846	2766.24780	296.79538	1601.77307	2887.25903	284.08295	1396.05469	2658.25781	283.81360	1502.88806	2657.15601	268.39938	1321.76477	2725.63647	88.74278	1573.99011	2849.12598	13.76355	1228.64587	2866.30151	75.80668	1237.21997	2836.35034	-31.32681	976.54126	2794.05151	32.52821	962.18573	2796.54517	-31.69419	890.12445	2716.50415	479.77856	1534.70837	2795.08398	529.68616	1163.06055	2827.98413	478.66360	1173.54346	2734.69824	540.80267	910.55811	2703.07520	475.93137	908.60278	2698.99512	532.60529	832.21533	2666.38965	156.00233	1060.69556	2855.04565	223.71602	1099.87207	2657.76733	344.86111	1042.55774	2851.84033	306.53088	1095.25269	2624.05103	69.16303	571.71600	2603.63672	180.07994	537.15771	2706.72363	120.25636	124.26295	2786.43896	185.77367	50.59906	2689.37720	207.05754	133.42091	2557.46069	83.98543	49.71185	2495.95581	159.61292	55.82986	2828.56445	391.90338	532.92688	2840.71582	295.86334	495.22321	2955.82495	358.45502	89.43806				2942.59302	267.34415	114.46305	2805.81299	386.44632	39.98663	2744.55859	302.94531	48.01617 
3	0.020	2542.69312	235.67345	1744.21960	2689.80273	224.80708	1723.07935	2543.39258	370.00507	1730.05872	2702.59473	352.56198	1701.56335	2759.54004	297.02286	1600.91760	2881.43628	284.33389	1395.75781	2651.79639	283.74658	1501.62231	2651.73120	268.21606	1320.46228	2719.32373	88.88982	1573.13367	2845.04834	13.99174	1228.66699	2862.46509	75.96812	1237.42798	2834.45679	-30.51508	976.24744	2792.75513	33.65600	961.73285	2795.89258	-30.11897	889.24463	2709.69409	479.85480	1533.58801	2788.98242	530.09412	1162.13672	2821.96411	479.14902	1172.61902	2728.86572	541.01520	909.45911	2696.95874	476.19894	907.61505	2693.08740	532.80774	831.13312	2661.70923	156.18318	1059.81726	2850.54346	223.51059	1099.14355	2653.38184	345.01251	1041.43286	2847.46826	306.29202	1094.48694	2616.18970	70.91412	571.76038	2595.85278	182.04443	537.72308	2686.37378	121.79926	122.14351	2764.27515	187.02789	46.28876	2669.24292	208.63336	131.47838	2535.10474	85.68710	50.98468	2473.93506	161.49832	58.27446	2826.80469	391.99719	532.47589	2838.75806	295.92599	494.57578	2955.39380	358.52469	89.42857				2942.34790	267.30438	114.44116	2802.50391	386.44479	40.77073	2744.46802	303.19321	47.62724 
4	0.030	2535.13818	235.91113	1742.27991	2682.32788	225.23700	1722.00269	2535.92407	370.14966	1727.91650	2695.37549	352.67822	1700.35193	2752.56812	297.08261	1600.00537	2875.59473	284.54724	1395.29968	2645.17749	283.53589	1500.41150	2645.94678	268.04425	1319.09082	2712.90283	88.87022	1572.03101	2840.85107	14.19722	1228.38684	2858.36401	76.08791	1237.42419	2833.56519	-28.78449	975.78314	2791.12280	34.70127	961.19037	2795.14502	-28.07233	888.40552	2702.67163	479.81995	1532.30750	2782.85059	530.50116	1161.09521	2815.91333	479.69635	1171.58264	2722.59058	541.17950	908.24939	2690.92871	476.38824	906.54913	2686.96973	532.97394	830.13300	2656.86353	156.33545	1058.81421	2845.78687	223.32384	1098.32642	2648.94800	345.12283	1040.21484	2842.76489	306.05994	1093.67175	2608.33569	72.79690	571.65875	2588.23828	183.99620	538.16925	2664.97607	123.11021	119.40794	2741.34521	187.93095	42.35024	2648.70874	210.05009	129.55006	2512.21436	87.31068	52.19513	2451.46021	163.27596	60.59781	2824.92798	392.09854	532.03674	2836.78418	296.03772	494.18134	2955.21802	358.45148	89.53107				2942.08765	267.22308	114.35571	2805.83130	386.85941	39.46005	2744.44238	303.30792	47.31656 
